<?xml version="1.0" standalone="no"?>
<!DOCTYPE svg PUBLIC "-//W3C//DTD SVG 20010904//EN"
 "http://www.w3.org/TR/2001/REC-SVG-20010904/DTD/svg10.dtd">
<svg version="1.0" xmlns="http://www.w3.org/2000/svg"
 width="512.000000pt" height="512.000000pt" viewBox="0 0 512.000000 512.000000"
 preserveAspectRatio="xMidYMid meet">
<metadata>
Created by potrace 1.11, written by Peter Selinger 2001-2013
</metadata>
<g transform="translate(0.000000,512.000000) scale(0.100000,-0.100000)"
fill="#000000" stroke="none">
<path d="M3255 5079 c-128 -19 -219 -47 -247 -78 -39 -44 -47 -102 -58 -456
-5 -176 -19 -453 -30 -615 -22 -309 -38 -992 -26 -1072 9 -61 59 -134 115
-169 44 -29 47 -29 190 -29 382 1 721 78 926 212 98 63 241 205 278 274 14 28
34 80 43 114 48 188 -75 383 -321 511 l-60 31 44 47 c70 73 128 171 162 273
27 78 33 113 36 213 8 203 -39 334 -172 474 -85 90 -164 147 -276 201 -134 64
-216 80 -393 79 -83 -1 -178 -5 -211 -10z m445 -421 c179 -89 253 -201 229
-349 -35 -220 -243 -359 -517 -346 -57 3 -105 7 -108 9 -2 3 3 126 11 274 8
148 15 311 15 362 l0 94 148 -4 c147 -3 147 -3 222 -40z m-95 -1104 c160 -27
391 -122 451 -185 l29 -31 -67 -63 c-118 -112 -281 -175 -546 -209 -68 -9
-141 -16 -163 -16 l-39 0 0 244 c0 134 3 251 6 260 8 21 206 21 329 0z"/>
<path d="M1670 4943 c-34 -31 -102 -111 -152 -177 -143 -190 -468 -687 -628
-961 -45 -79 -58 -93 -94 -108 -24 -10 -58 -33 -77 -53 -32 -33 -34 -39 -34
-107 0 -68 -4 -80 -69 -217 -128 -269 -147 -350 -105 -437 73 -150 298 -182
408 -58 18 21 85 142 147 268 63 127 116 232 117 234 7 7 158 23 347 38 113 8
223 18 245 21 l40 5 43 -138 c78 -249 194 -452 283 -498 36 -19 129 -19 173
-1 52 22 113 83 132 132 29 75 16 156 -49 319 -31 77 -70 196 -86 265 -78 329
-168 734 -226 1023 -35 177 -73 337 -84 361 -44 91 -126 145 -218 146 -49 0
-55 -3 -113 -57z m15 -981 c15 -78 26 -145 23 -147 -5 -5 -250 -27 -254 -22
-1 1 41 77 94 168 53 91 100 161 103 155 3 -6 19 -75 34 -154z"/>
<path d="M542 2490 c-43 -18 -93 -63 -120 -109 -25 -42 -27 -54 -25 -141 1
-52 9 -180 18 -285 21 -246 24 -1076 5 -1450 -7 -143 -10 -277 -6 -298 8 -45
67 -114 113 -134 18 -7 57 -13 86 -13 97 0 153 61 183 197 12 57 15 180 14
773 -1 607 1 703 13 690 8 -8 77 -98 153 -200 474 -634 1073 -1304 1239 -1385
84 -41 177 -34 233 18 83 77 91 164 94 987 3 698 -1 786 -43 993 -34 170 -94
283 -170 322 -33 17 -125 20 -166 4 -45 -17 -82 -60 -98 -113 -21 -71 -19 -99
20 -251 20 -80 41 -194 50 -278 17 -167 34 -577 38 -906 l2 -233 -152 156
c-390 400 -690 775 -1088 1361 -131 192 -203 277 -250 295 -32 12 -112 12
-143 0z"/>
<path d="M2765 2406 c-71 -31 -124 -130 -110 -205 27 -145 121 -182 522 -203
l222 -12 5 -50 c3 -28 8 -96 11 -151 4 -55 15 -203 26 -330 24 -278 41 -671
43 -975 2 -258 5 -271 84 -321 43 -28 53 -30 116 -27 68 4 70 5 111 50 52 58
78 136 79 238 1 108 -30 720 -53 1035 -11 149 -23 330 -27 403 l-7 132 121 0
c66 0 227 -7 358 -16 281 -18 315 -14 374 47 59 61 73 153 34 230 -20 39 -80
87 -116 93 -96 16 -441 29 -913 36 -398 6 -559 12 -645 24 -138 19 -195 20
-235 2z"/>
</g>
</svg>
